<?xml version="1.0" encoding="UTF-8"?> <!-- Generator: Adobe Illustrator 28.0.0, SVG Export Plug-In . SVG Version: 6.00 Build 0) --> <svg xmlns="http://www.w3.org/2000/svg" xmlns:xlink="http://www.w3.org/1999/xlink" version="1.1" id="Capa_1" x="0px" y="0px" viewBox="0 0 512 512" style="enable-background:new 0 0 512 512;" xml:space="preserve"> <style type="text/css"> .st0{fill:#579ADD;} .st1{fill:#4987CE;} .st2{fill:#8C123C;} .st3{fill:#AD1457;} .st4{fill:#FFDC00;} .st5{fill:#E91E63;} </style> <path class="st0" d="M492.8,505.5H19.2c-6.6,0-12-5.4-12-12V19.9c0-6.6,5.4-12,12-12h473.7c6.6,0,12,5.4,12,12v473.7 C504.8,500.1,499.4,505.5,492.8,505.5z"></path> <path class="st1" d="M27.2,493.5V19.9c0-6.6,5.4-12,12-12h-20c-6.6,0-12,5.4-12,12v473.7c0,6.6,5.4,12,12,12h20 C32.6,505.5,27.2,500.1,27.2,493.5z"></path> <path d="M132.2,186.8c0.8,0,1.5-0.7,1.5-1.5v-7.7c0-1-0.8-1.8-1.8-1.8H56.4c-0.4,0-0.7,0.3-0.7,0.7v9.5c0,0.4,0.3,0.8,0.8,0.8 L132.2,186.8L132.2,186.8z"></path> <path d="M57.3,336.1h75.9c0.6,0,1.1-0.5,1.1-1.1v-8.8c0-0.6-0.5-1.1-1.1-1.1h-76c-0.5,0-0.9,0.4-0.9,0.9v9 C56.3,335.7,56.8,336.1,57.3,336.1z"></path> <path d="M167.1,249.8c0,0.5,0.4,1,1,1h84.6c0.5,0,0.9-0.2,1.2-0.4c1.6-1.3,6.2-5.4,8.5-9.5c0.3-0.5-0.1-1-0.6-1h-93.6 c-0.6,0-1.1,0.5-1.1,1.1L167.1,249.8L167.1,249.8z"></path> <path d="M55.7,206.4c0,1,0.8,1.8,1.8,1.8h74.1c1.2,0,2.1-1,2.1-2.1v-6.8c0-1.1-0.9-2.1-2.1-2.1h-74c-1.1,0-2,0.9-2,2 C55.7,199.1,55.7,206.4,55.7,206.4z"></path> <path d="M79.2,282.5c-0.6,0-1.1,0.5-1.1,1.1v8.6c0,0.7,0.5,1.2,1.2,1.2h31.6c0.5,0,1-0.4,1-1v-9c0-0.6-0.5-1-1-1L79.2,282.5 L79.2,282.5z"></path> <path d="M111.9,241.3c0-0.8-0.7-1.5-1.5-1.5H79.6c-0.8,0-1.5,0.7-1.5,1.5v8.1c0,0.8,0.6,1.4,1.4,1.4h30.9c0.8,0,1.4-0.6,1.4-1.4 C111.9,249.4,111.9,241.3,111.9,241.3z"></path> <path d="M111.9,219.9c0-0.8-0.6-1.4-1.4-1.4H79.2c-0.6,0-1.1,0.5-1.1,1.1v8.6c0,0.7,0.6,1.3,1.3,1.3H111c0.5,0,0.9-0.4,0.9-0.9 L111.9,219.9L111.9,219.9z"></path> <path d="M167.1,292.3c0,0.7,0.5,1.2,1.2,1.2h31.4c0.7,0,1.2-0.5,1.2-1.2v-8.8c0-0.6-0.5-1-1-1h-31.4c-0.7,0-1.3,0.6-1.3,1.3 L167.1,292.3L167.1,292.3L167.1,292.3z"></path> <path d="M111.9,262.5c0-0.7-0.6-1.3-1.3-1.3H79.4c-0.7,0-1.3,0.6-1.3,1.3v8.2c0,0.8,0.7,1.5,1.5,1.5h30.7c0.9,0,1.6-0.7,1.6-1.6 L111.9,262.5L111.9,262.5z"></path> <path d="M168.6,229.5H200c0.5,0,0.9-0.4,0.9-0.9v-9c0-0.6-0.5-1.1-1.1-1.1h-31.6c-0.6,0-1.1,0.5-1.1,1.1v8.4 C167.1,228.8,167.8,229.5,168.6,229.5z"></path> <path d="M167.1,270.9c0,0.7,0.5,1.2,1.2,1.2h93.5c0.5,0,0.8-0.5,0.6-1c-2.1-4-6.6-8-8.4-9.4c-0.4-0.4-1-0.6-1.6-0.6h-84.3 c-0.6,0-1.1,0.5-1.1,1.1L167.1,270.9L167.1,270.9z"></path> <path d="M377.5,219.1l-3.4,9.2c-0.2,0.6,0.2,1.2,0.8,1.2h58c0.5,0,0.9-0.4,0.9-0.9v-9.2c0-0.5-0.4-0.9-0.9-0.9h-54.7 C378,218.5,377.7,218.7,377.5,219.1z"></path> <path d="M384.9,197.8l-3.1,9.2c-0.2,0.6,0.2,1.2,0.8,1.2h72.2c0.5,0,0.9-0.4,0.9-0.9v-9.2c0-0.5-0.4-0.9-0.9-0.9h-69.1 C385.4,197.2,385,197.5,384.9,197.8z"></path> <path d="M454.8,175.9h-61.1c-0.4,0-0.7,0.2-0.8,0.6l-3.3,9.2c-0.2,0.6,0.2,1.2,0.8,1.2h64.5c0.5,0,0.9-0.4,0.9-0.9v-9.2 C455.7,176.3,455.3,175.9,454.8,175.9z"></path> <path d="M356.2,219.1c-0.1-0.4-0.5-0.6-0.8-0.6h-53.9c-0.7,0-1.3,0.6-1.3,1.3v8c0,0.9,0.7,1.7,1.7,1.7h56.9c0.6,0,1-0.6,0.8-1.2 L356.2,219.1z"></path> <path d="M144.7,198.6v8.3c0,0.7,0.6,1.3,1.3,1.3h121.7c0.6,0,1-0.5,0.9-1.1c-0.4-2.1-1.5-6.8-3.2-9.2c-0.3-0.5-0.9-0.7-1.4-0.7 H146.1C145.3,197.2,144.7,197.8,144.7,198.6z"></path> <path d="M343.6,186.8c0.6,0,1-0.6,0.8-1.2l-3.3-9.2c-0.1-0.4-0.5-0.6-0.8-0.6h-61.4c-0.7,0-1.2,0.5-1.2,1.2v8.5 c0,0.7,0.6,1.2,1.2,1.2H343.6z"></path> <path d="M145.9,175.9c-0.7,0-1.2,0.5-1.2,1.2v8.4c0,0.8,0.6,1.4,1.4,1.4H254c0.6,0,0.9-0.8,0.4-1.2c-3.5-2.9-13.1-9.7-25-9.7 L145.9,175.9L145.9,175.9z"></path> <path d="M363.5,325.2c-0.3,0-0.4,0.2-0.3,0.5l3.7,10.4l0.7,0l3.8-10.6c0.1-0.2-0.1-0.4-0.3-0.4H363.5z"></path> <path d="M390.6,271.6l3.2-9.2c0.2-0.6-0.2-1.2-0.8-1.2h-51.8c-0.6,0-1,0.6-0.8,1.2l3.4,9.2c0.1,0.3,0.5,0.6,0.8,0.6h45.1 C390.2,272.1,390.5,271.9,390.6,271.6z"></path> <path d="M382.9,292.9l3.3-9.2c0.2-0.6-0.2-1.2-0.8-1.2h-36.5c-0.6,0-1,0.6-0.8,1.2l3.3,9.2c0.1,0.4,0.5,0.6,0.8,0.6h29.8 C382.4,293.5,382.8,293.2,382.9,292.9z"></path> <path d="M370.3,240.4l-2.3,6.4c-0.3,0.8-1.4,0.8-1.7,0l-2.3-6.4c-0.1-0.4-0.5-0.6-0.8-0.6h-61.7c-0.8,0-1.4,0.6-1.4,1.4v8.1 c0,0.8,0.7,1.5,1.5,1.5h31.4c0.5,0,0.9-0.4,0.9-0.9c0-1,1.4-1.2,1.7-0.3l0.2,0.6c0.1,0.4,0.5,0.6,0.8,0.6h60.6 c0.4,0,0.7-0.2,0.8-0.6l0.4-1c0.3-0.9,1.7-0.7,1.7,0.3v0.3c0,0.5,0.4,0.9,0.9,0.9h32c0.5,0,0.9-0.4,0.9-0.9v-9.2 c0-0.5-0.4-0.9-0.9-0.9h-61.9C370.8,239.9,370.4,240.1,370.3,240.4z"></path> <path d="M375.4,314.2l3.2-9.2c0.2-0.6-0.2-1.2-0.8-1.2h-21.2c-0.6,0-1,0.6-0.8,1.2l3.4,9.2c0.1,0.3,0.5,0.6,0.8,0.6h14.6 C375,314.8,375.3,314.6,375.4,314.2z"></path> <path d="M401,272.1h32c0.5,0,0.9-0.4,0.9-0.9v-9.2c0-0.5-0.4-0.9-0.9-0.9h-32c-0.5,0-0.9,0.4-0.9,0.9v9.2 C400.1,271.7,400.5,272.1,401,272.1z"></path> <path d="M134.3,304.6c0-0.4-0.4-0.8-0.8-0.8H57.1c-0.4,0-0.8,0.4-0.8,0.8v9.1c0,0.6,0.5,1.1,1.1,1.1h76.2c0.4,0,0.7-0.3,0.7-0.7 V304.6z"></path> <path d="M455.4,325.2H401c-0.5,0-0.9,0.4-0.9,0.9v9.2c0,0.5,0.4,0.9,0.9,0.9h54.4c0.5,0,0.9-0.4,0.9-0.9v-9.2 C456.3,325.6,455.9,325.2,455.4,325.2z"></path> <path d="M400.1,292.6c0,0.5,0.4,0.9,0.9,0.9h32c0.5,0,0.9-0.4,0.9-0.9v-9.2c0-0.5-0.4-0.9-0.9-0.9h-32c-0.5,0-0.9,0.4-0.9,0.9V292.6 z"></path> <path d="M333.8,262.1c0-0.5-0.4-0.9-0.9-0.9h-31.4c-0.8,0-1.5,0.7-1.5,1.5v7.8c0,0.9,0.8,1.7,1.7,1.7h31.2c0.5,0,0.9-0.4,0.9-0.9 L333.8,262.1L333.8,262.1z"></path> <path d="M456.3,304.7c0-0.5-0.4-0.9-0.9-0.9H401c-0.5,0-0.9,0.4-0.9,0.9v9.2c0,0.5,0.4,0.9,0.9,0.9h54.4c0.5,0,0.9-0.4,0.9-0.9 L456.3,304.7L456.3,304.7z"></path> <path d="M268.9,218.5h-34.2c-0.5,0-1,0.4-1,1v9.1c0,0.5,0.4,0.9,0.9,0.9h32.1c0.4,0,0.8-0.3,0.9-0.7c0.5-1.6,1.8-5.7,1.9-9.6 C269.7,218.8,269.3,218.5,268.9,218.5z"></path> <path d="M269.6,292.4c-0.2-3.7-1.3-7.5-1.8-9.1c-0.2-0.5-0.6-0.8-1.1-0.8h-31.6c-0.8,0-1.4,0.6-1.4,1.4v8.1c0,0.9,0.7,1.5,1.5,1.5 h33.4C269.2,293.5,269.7,293,269.6,292.4z"></path> <path d="M265.2,314.3c1.8-2.4,3-7.7,3.4-9.7c0.1-0.4-0.2-0.8-0.6-0.8H145.7c-0.5,0-1,0.4-1,1v9c0,0.5,0.4,1,1,1h118.5 C264.6,314.8,265,314.6,265.2,314.3z"></path> <path d="M145.8,325.2c-0.6,0-1.1,0.5-1.1,1.1v8.8c0,0.6,0.5,1,1,1h83.7c12.2,0,21.9-7.2,25.2-9.9c0.4-0.4,0.2-1-0.4-1H145.8z"></path> <path d="M277.6,207c0,0.7,0.5,1.2,1.2,1.2H351c0.6,0,1-0.6,0.8-1.2l-3.1-9.2c-0.1-0.4-0.5-0.6-0.8-0.6H279c-0.8,0-1.4,0.6-1.4,1.4 V207z"></path> <path d="M333.8,304.5c0-0.4-0.3-0.7-0.7-0.7h-53.7c-0.6,0-1.1,0.5-1.1,1.1v8.5c0,0.7,0.6,1.3,1.3,1.3h53.6c0.4,0,0.7-0.3,0.7-0.7 V304.5L333.8,304.5z"></path> <path d="M333.8,283.4c0-0.5-0.4-0.9-0.9-0.9h-31.3c-0.8,0-1.5,0.7-1.5,1.5v8c0,0.8,0.7,1.5,1.5,1.5h31.4c0.5,0,0.9-0.4,0.9-0.9 L333.8,283.4L333.8,283.4L333.8,283.4z"></path> <path d="M279.4,325.2c-0.6,0-1.1,0.5-1.1,1.1v8.7c0,0.6,0.5,1.1,1.1,1.1h54c0.3,0,0.5-0.2,0.5-0.5v-9.8c0-0.3-0.3-0.6-0.6-0.6 L279.4,325.2L279.4,325.2z"></path> <path d="M492.5,0h-219c-4.1,0-7.5,3.4-7.5,7.5s3.4,7.5,7.5,7.5h219c2.4,0,4.5,2.1,4.5,4.5v219c0,4.1,3.4,7.5,7.5,7.5 s7.5-3.4,7.5-7.5v-219C512,8.7,503.3,0,492.5,0z"></path> <path d="M504.5,266c-4.1,0-7.5,3.4-7.5,7.5v219c0,2.4-2.1,4.5-4.5,4.5h-473c-2.4,0-4.5-2.1-4.5-4.5v-473c0-2.4,2.1-4.5,4.5-4.5h219 c4.1,0,7.5-3.4,7.5-7.5S242.6,0,238.5,0h-219C8.7,0,0,8.7,0,19.5v473C0,503.3,8.7,512,19.5,512h473c10.8,0,19.5-8.7,19.5-19.5v-219 C512,269.4,508.6,266,504.5,266z"></path> <path id="Shape_00000060030709413686463000000013897943563185812667_" class="st2" d="M488.4,134.8c2.3,2.4,3.5,5.6,3.5,8.9 c0,5.1-3,9.7-7.6,11.9c-4.7,2.2-7.6,6.8-7.7,11.9c0,1.5,0.3,3.1,0.9,4.5c0.6,1.4,0.9,3,0.9,4.5c0,7-5.6,12.8-12.6,13.1 c-6.8,0.3-12.3,5.7-12.5,12.5c-0.1,3.4-1.5,6.6-3.9,8.9c-2.4,2.4-5.7,3.8-9.1,3.8c-1.5,0-3.1-0.3-4.5-0.9c-1.4-0.6-3-0.9-4.5-0.9 c-5.1,0-9.8,3-11.9,7.7c-2.1,4.6-6.8,7.6-11.9,7.6c-3.3,0-6.5-1.2-8.9-3.5c-4.9-4.6-12.4-4.7-17.4-0.3c-0.1,0.1-0.3,0.2-0.3,0.3 c-2.4,2.3-5.6,3.5-8.9,3.5c-5.1,0-9.7-3-11.9-7.6c-2.2-4.7-6.8-7.6-11.9-7.7c-1.5,0-3.1,0.3-4.5,0.9c-1.4,0.6-3,0.9-4.5,0.9 c-3.4,0-6.7-1.4-9.1-3.8c-2.4-2.3-3.9-5.5-3.9-8.9c-0.3-6.8-5.7-12.3-12.5-12.5c-7-0.3-12.6-6-12.6-13.1c0-1.5,0.3-3.1,0.9-4.5 c0.6-1.4,0.9-3,0.9-4.5c0-5.1-3-9.8-7.7-11.9c-4.6-2.1-7.6-6.8-7.6-11.9c0-3.3,1.2-6.5,3.5-8.9c4.7-5,4.7-12.8,0-17.7 c-2.3-2.4-3.5-5.6-3.5-8.9c0-5.1,3-9.7,7.6-11.9c4.7-2.2,7.6-6.8,7.7-11.9c0-1.5-0.3-3.1-0.9-4.5c-0.6-1.4-0.9-3-0.9-4.5 c0-7,5.6-12.8,12.6-13.1c6.8-0.3,12.3-5.7,12.5-12.5c0.3-7,6-12.6,13.1-12.6c1.5,0,3.1,0.3,4.5,0.9c1.4,0.6,3,0.9,4.5,0.9 c5.1,0,9.8-3,11.9-7.7c2.1-4.6,6.8-7.6,11.9-7.6c3.3,0,6.5,1.2,8.9,3.5c5,4.7,12.8,4.7,17.7,0c3.1-2.8,7.3-4.1,11.4-3.2 c4.1,0.8,7.6,3.5,9.3,7.3c2.2,4.7,6.8,7.6,11.9,7.7c1.5,0,3.1-0.3,4.5-0.9c1.4-0.6,3-0.9,4.5-0.9c7,0,12.8,5.6,13.1,12.6 c0.3,6.8,5.7,12.3,12.5,12.5c7,0.3,12.6,6,12.6,13.1c0,1.5-0.3,3.1-0.9,4.5c-0.6,1.4-0.9,3-0.9,4.5c0,5.1,3,9.8,7.7,11.9 c4.6,2.1,7.6,6.8,7.6,11.9c0,3.3-1.2,6.5-3.5,8.9C483.8,122,483.8,129.8,488.4,134.8L488.4,134.8z"></path> <path id="Shape_00000174585284398362939360000017547480006680737970_" class="st3" d="M484.9,125.9c0-3.3,1.3-6.5,3.5-8.9 c2.3-2.4,3.5-5.6,3.5-8.9c0-5.1-3-9.7-7.6-11.9c-4.7-2.2-7.6-6.8-7.7-11.9c0-1.5,0.3-3.1,0.9-4.5c0.6-1.4,0.9-3,0.9-4.5 c0-7-5.6-12.8-12.6-13.1c-6.8-0.3-12.3-5.7-12.5-12.5c-0.3-7-6-12.6-13.1-12.6c-1.5,0-3.1,0.3-4.5,0.9c-1.4,0.6-3,0.9-4.5,0.9 c-5.1,0-9.8-3-11.9-7.7c-1.8-3.8-5.2-6.5-9.3-7.3c-4.1-0.8-8.3,0.4-11.4,3.2c-1.6,1.4-3.5,2.4-5.6,2.9c0.3,0.4,0.5,0.8,0.8,1.2 c2.2,4.7,6.8,7.6,11.9,7.7c1.5,0,3.1-0.3,4.5-0.9c1.4-0.6,3-0.9,4.5-0.9c7,0,12.8,5.6,13.1,12.6c0.3,6.8,5.7,12.3,12.5,12.5 c7,0.3,12.6,6,12.6,13.1c0,1.5-0.3,3.1-0.9,4.5c-0.6,1.4-0.9,3-0.9,4.5c0,5.1,3,9.8,7.7,11.9c4.6,2.1,7.6,6.8,7.6,11.9 c0,3.3-1.2,6.5-3.5,8.9c-4.7,5-4.7,12.8,0,17.7c2.3,2.4,3.5,5.6,3.5,8.9c0,5.1-3,9.7-7.6,11.9c-4.7,2.2-7.6,6.8-7.7,11.9 c0,1.5,0.3,3.1,0.9,4.5c0.6,1.4,0.9,3,0.9,4.5c0,7-5.6,12.8-12.6,13.1c-6.8,0.3-12.3,5.7-12.5,12.5c-0.1,3.4-1.5,6.6-3.9,8.9 c-2.4,2.4-5.7,3.8-9.1,3.8c-1.5,0-3.1-0.3-4.5-0.9c-1.4-0.6-3-0.9-4.5-0.9c-5.1,0-9.8,3-11.9,7.7c-0.2,0.4-0.5,0.8-0.8,1.2 c2.1,0.5,4,1.5,5.6,2.9c2.4,2.3,5.6,3.5,8.9,3.5c5.1,0,9.7-3,11.9-7.6c2.2-4.7,6.8-7.6,11.9-7.7c1.5,0,3.1,0.3,4.5,0.9 c1.4,0.6,3,0.9,4.5,0.9c3.4,0,6.7-1.4,9.1-3.8c2.4-2.3,3.9-5.5,3.9-8.9c0.3-6.8,5.7-12.3,12.5-12.5c7-0.3,12.6-6,12.6-13.1 c0-1.5-0.3-3.1-0.9-4.5c-0.6-1.4-0.9-3-0.9-4.5c0-5.1,3-9.8,7.7-11.9c4.6-2.1,7.6-6.8,7.6-11.9c0-3.3-1.2-6.5-3.5-8.9 C486.2,132.4,485,129.2,484.9,125.9z"></path> <circle id="Oval" class="st4" cx="389.5" cy="125.9" r="59.7"></circle> <path id="Shape_00000019667511890795215450000012271111014342998179_" class="st5" d="M398.1,313.6V416l-34.1-34.1L329.8,416V211 c2.4,2.4,5.7,3.8,9.1,3.8c1.5,0,3.1-0.3,4.5-0.9c1.4-0.6,3-0.9,4.5-0.9c5.1,0,9.8,3,11.9,7.7c2.1,4.6,6.8,7.6,11.9,7.6 c3.3,0,6.5-1.2,8.9-3.5c0.1-0.1,0.3-0.2,0.3-0.3v106.2L398.1,313.6z"></path> <path id="Shape_00000154408308242404874840000005564863010030872717_" class="st2" d="M449.3,211v119.7l-34.1-34.1L381,330.7V224.6 c5-4.4,12.5-4.3,17.4,0.3c2.4,2.3,5.6,3.5,8.9,3.5c5.1,0,9.7-3,11.9-7.6c2.2-4.7,6.8-7.6,11.9-7.7c1.5,0,3.1,0.3,4.5,0.9 c1.4,0.6,3,0.9,4.5,0.9C443.5,214.7,446.8,213.4,449.3,211L449.3,211z"></path> <path id="Shape_00000027565458153473939380000009802331486524469935_" class="st3" d="M440.1,214.7c-1.5,0-3.1-0.3-4.5-0.9 c-1.4-0.6-3-0.9-4.5-0.9c-2.7,0-5.3,0.9-7.4,2.4v89.7l25.6,25.6V211C446.8,213.4,443.5,214.7,440.1,214.7L440.1,214.7z"></path> </svg> 