<?xml version="1.0" encoding="UTF-8"?> <!-- Generator: Adobe Illustrator 28.0.0, SVG Export Plug-In . SVG Version: 6.00 Build 0) --> <svg xmlns="http://www.w3.org/2000/svg" xmlns:xlink="http://www.w3.org/1999/xlink" version="1.1" id="Capa_1" x="0px" y="0px" viewBox="0 0 512 512" style="enable-background:new 0 0 512 512;" xml:space="preserve"> <style type="text/css"> .st0{fill:#0055A3;} .st1{fill:#004281;} .st2{fill:#FFFFFF;} .st3{fill:#F5841A;} .st4{fill:#03002C;} </style> <g> <path class="st0" d="M467.3,284.8c3.1-3.6,4-8.5,2.6-13L458.3,236l11.6-35.8c1.4-4.5,0.5-9.4-2.6-13l-24.4-28.6l-3-37.5 c-0.4-4.7-3.2-8.9-7.4-11L399.1,93l-17.2-33.5c-2.1-4.2-6.3-7-11-7.4l-37.5-3l-28.6-24.4c-3.6-3.1-8.5-4-13-2.6L256,33.7 l-35.8-11.6c-4.5-1.4-9.4-0.5-13,2.6l-28.6,24.4l-37.5,3c-4.7,0.4-8.9,3.2-11,7.4L113,92.9l-33.5,17.2c-4.2,2.1-7,6.3-7.4,11 l-3,37.5l-24.4,28.6c-3.1,3.6-4,8.5-2.6,13L53.7,236l-11.6,35.8c-1.4,4.5-0.5,9.4,2.6,13l24.4,28.6l3,37.5c0.4,4.7,3.2,8.9,7.4,11 l33.5,17.1l17.2,33.5c2.1,4.2,6.3,7,11,7.4l37.5,3l28.6,24.4c3.6,3.1,8.5,4,13,2.6l35.8-11.6l35.8,11.6c4.5,1.4,9.4,0.5,13-2.6 l28.6-24.4l37.5-3c4.7-0.4,8.9-3.2,11-7.4l17.1-33.5l33.5-17.2c4.2-2.1,7-6.3,7.4-11l3-37.5L467.3,284.8z"></path> <g> <path class="st1" d="M296.2,340.4c-2.2,0-4.4-0.5-6.4-1.6c-6.5-3.5-8.9-11.7-5.4-18.2L364.9,173c3.5-6.5,11.7-8.9,18.2-5.4 c6.5,3.5,8.9,11.7,5.4,18.2L308,333.4C305.6,337.8,301,340.4,296.2,340.4z"></path> <circle class="st1" cx="302.9" cy="186.2" r="20.1"></circle> <circle class="st1" cx="370" cy="320.2" r="20.1"></circle> <path class="st1" d="M189,146c-37,0-67,30-67,67v80.5c0,37,30,67,67,67s67-30,67-67V213C256,176,226,146,189,146L189,146z M215.8,293.5c0,14.8-12,26.8-26.8,26.8s-26.8-12-26.8-26.8V213c0-14.8,12-26.8,26.8-26.8s26.8,12,26.8,26.8V293.5z"></path> <path class="st1" d="M469.9,271.8L458.3,236l11.6-35.8c1.4-4.5,0.5-9.4-2.6-13l-24.4-28.6l-3-37.5c-0.4-4.7-3.2-8.9-7.4-11 L399.1,93l-17.2-33.5c-2.1-4.2-6.3-7-11-7.4l-20.1-1.6c1.6,2.1,3.1,4.4,4.3,6.8l5,9.7c2.9,5.7,7.5,10.3,13.2,13.2l9.6,4.9 c13.6,6.9,22.6,20.4,23.8,35.7l0.9,10.8c0.5,6.4,3,12.4,7.1,17.3l7,8.3c9.9,11.6,13,27.5,8.4,42l-3.3,10.4c-2,6.1-2,12.6,0,18.7 l3.3,10.3c4.7,14.5,1.5,30.4-8.4,42.1l-7,8.2c-4.1,4.9-6.6,10.9-7.1,17.2l-2.2,27.7c-0.4,4.7-3.2,8.9-7.4,11l-24.7,12.7 c-5.7,2.9-10.3,7.5-13.2,13.2l-4.9,9.6c-6.9,13.6-20.4,22.6-35.7,23.8l-10.8,0.9c-6.4,0.5-12.4,3-17.3,7.1l-8.3,7 c-11.6,9.9-27.5,13-42,8.4l-10.4-3.3c-6.1-2-12.6-2-18.7,0l-10.3,3.3c-5.1,1.6-10.3,2.3-15.5,2.1l20.9,17.8c3.6,3.1,8.5,4,13,2.6 l35.8-11.6l35.8,11.6c4.5,1.4,9.4,0.5,13-2.6l28.6-24.4l37.5-3c4.7-0.4,8.9-3.2,11-7.4l17.1-33.5l33.5-17.2c4.2-2.1,7-6.3,7.4-11 l3-37.5l24.4-28.6C470.4,281.2,471.3,276.3,469.9,271.8z"></path> </g> <path class="st2" d="M296.2,323.1c-2.2,0-4.4-0.5-6.4-1.6c-6.5-3.5-8.9-11.7-5.4-18.2l80.5-147.5c3.5-6.5,11.7-8.9,18.2-5.4 c6.5,3.5,8.9,11.7,5.4,18.2L308,316.1C305.6,320.6,301,323.1,296.2,323.1z"></path> <circle class="st2" cx="302.9" cy="168.9" r="20.1"></circle> <circle class="st2" cx="370" cy="303" r="20.1"></circle> <path class="st2" d="M189,128.7c-37,0-67,30-67,67v80.5c0,37,30,67,67,67s67-30,67-67v-80.5C256,158.7,226,128.7,189,128.7 L189,128.7z M215.8,276.2c0,14.8-12,26.8-26.8,26.8s-26.8-12-26.8-26.8v-80.5c0-14.8,12-26.8,26.8-26.8s26.8,12,26.8,26.8V276.2z"></path> <path d="M395.8,156.6c-1.5-5.1-4.9-9.3-9.6-11.8c-9.6-5.3-21.7-1.7-27,7.9l-80.5,147.5c-5.2,9.6-1.7,21.7,7.9,27 c2.9,1.6,6.2,2.4,9.5,2.4c7.3,0,14-4,17.5-10.4L369,217.9c1.7-3.1,0.6-7.1-2.6-8.8c-3.1-1.7-7.1-0.6-8.8,2.6L302.3,313 c-1.2,2.2-3.6,3.6-6.1,3.6c-1.2,0-2.3-0.3-3.3-0.8c-3.4-1.8-4.6-6.1-2.8-9.4l80.5-147.5c1.8-3.4,6.1-4.6,9.4-2.8 c1.6,0.9,2.8,2.4,3.3,4.1c0.5,1.8,0.3,3.7-0.6,5.3l-10.4,19c-1.7,3.1-0.6,7.1,2.6,8.8c3.1,1.7,7.1,0.6,8.8-2.6l10.4-19 C396.7,167,397.3,161.7,395.8,156.6L395.8,156.6z"></path> <path d="M276.3,168.9c0,14.7,11.9,26.6,26.6,26.6s26.6-11.9,26.6-26.6s-11.9-26.6-26.6-26.6S276.3,154.2,276.3,168.9z M316.6,168.9 c0,7.5-6.1,13.6-13.6,13.6c-7.5,0-13.6-6.1-13.6-13.6s6.1-13.6,13.6-13.6C310.5,155.3,316.6,161.4,316.6,168.9z"></path> <path d="M370,276.4c-14.7,0-26.6,11.9-26.6,26.6s11.9,26.6,26.6,26.6s26.6-11.9,26.6-26.6S384.6,276.4,370,276.4z M370,316.6 c-7.5,0-13.6-6.1-13.6-13.6c0-7.5,6.1-13.6,13.6-13.6c7.5,0,13.6,6.1,13.6,13.6C383.6,310.5,377.5,316.6,370,316.6z"></path> <path d="M476,269.8L465.1,236l10.9-33.8c2.2-6.7,0.7-13.8-3.8-19.2l-23-27l-2.8-35.4c-0.5-6.9-4.7-13.1-10.9-16.3l-31.6-16.1 l-16.2-31.6c-3.2-6.2-9.3-10.3-16.3-10.9L336,42.8l-27-23c-5.3-4.5-12.6-6-19.2-3.8L256,26.9L222.2,16c-6.7-2.2-13.8-0.7-19.2,3.8 l-27,23l-35.4,2.8c-6.9,0.5-13.1,4.7-16.3,10.9c-1.6,3.2-0.4,7.1,2.8,8.7c3.2,1.6,7.1,0.4,8.7-2.8c1.1-2.2,3.3-3.7,5.8-3.9l37.5-3 c1.4-0.1,2.6-0.6,3.7-1.5l28.6-24.4c1.9-1.6,4.4-2.1,6.8-1.4L254,39.9c1.3,0.4,2.7,0.4,4,0l35.8-11.6c2.3-0.8,5-0.2,6.8,1.4 L329.2,54c1,0.9,2.3,1.4,3.7,1.5l37.5,3c2.5,0.2,4.6,1.6,5.8,3.9l17.2,33.5c0.6,1.2,1.6,2.2,2.8,2.8l33.5,17.1 c2.2,1.1,3.7,3.3,3.9,5.8l3,37.5c0.1,1.4,0.6,2.6,1.5,3.7l24.4,28.6c1.6,1.9,2.1,4.4,1.4,6.8L452.1,234c-0.4,1.3-0.4,2.7,0,4 l11.6,35.8c0.8,2.3,0.2,5-1.4,6.8L438,309.2c-0.9,1-1.4,2.3-1.5,3.7l-3,37.5c-0.2,2.5-1.6,4.6-3.9,5.8l-33.5,17.2 c-1.2,0.6-2.2,1.6-2.8,2.8l-17.1,33.5c-1.1,2.2-3.3,3.7-5.8,3.9l-37.5,3c-1.4,0.1-2.6,0.6-3.7,1.5l-28.6,24.4 c-1.9,1.6-4.4,2.1-6.8,1.4L258,432.1c-1.3-0.4-2.7-0.4-4,0l-35.8,11.6c-2.3,0.8-5,0.2-6.8-1.4L182.8,418c-1-0.9-2.3-1.4-3.7-1.5 l-37.5-3c-2.5-0.2-4.6-1.6-5.8-3.9l-17.2-33.5c-0.6-1.2-1.6-2.2-2.8-2.8l-33.5-17.1c-2.2-1.1-3.7-3.3-3.9-5.8l-3-37.5 c-0.1-1.4-0.6-2.6-1.5-3.7l-24.4-28.6c-1.6-1.9-2.1-4.4-1.4-6.8L59.9,238c0.4-1.3,0.4-2.7,0-4l-11.6-35.8c-0.8-2.3-0.2-5,1.4-6.8 L74,162.8c0.9-1,1.4-2.3,1.5-3.7l3-37.5c0.2-2.5,1.6-4.6,3.9-5.8l33.5-17.2c1.2-0.6,2.2-1.6,2.8-2.8l3.1-6.2 c1.6-3.2,0.4-7.1-2.8-8.7c-3.2-1.6-7.1-0.4-8.7,2.8l-2.2,4.3l-31.6,16.2c-6.2,3.2-10.3,9.3-10.9,16.3L62.8,156l-23,27 c-4.5,5.3-6,12.6-3.8,19.2L46.9,236L36,269.8c-2.2,6.7-0.7,13.8,3.8,19.2l23,27l2.8,35.4c0.5,6.9,4.7,13.1,10.9,16.3l31.6,16.1 l16.2,31.6c3.2,6.2,9.3,10.3,16.3,10.9l35.4,2.9l27,23c5.3,4.5,12.6,6,19.2,3.8l33.8-10.9l33.8,10.9c6.7,2.2,13.8,0.7,19.2-3.8 l27-23l35.4-2.8c6.9-0.5,13.1-4.7,16.3-10.9l16.1-31.6l31.6-16.2c6.2-3.2,10.3-9.3,10.9-16.3l2.9-35.4l23-27 C476.7,283.7,478.2,276.4,476,269.8L476,269.8z"></path> <path d="M262.5,80V64.4c0-3.6-2.9-6.5-6.5-6.5s-6.5,2.9-6.5,6.5V80c0,3.6,2.9,6.5,6.5,6.5C259.6,86.5,262.5,83.6,262.5,80z"></path> <path d="M198.8,97.8c3.3-1.4,4.9-5.2,3.5-8.5l-6-14.4c-1.4-3.3-5.2-4.9-8.5-3.5c-3.3,1.4-4.9,5.2-3.5,8.5l6,14.4 C191.7,97.6,195.5,99.2,198.8,97.8z"></path> <path d="M190.3,377.7l-6,14.4c-1.4,3.3,0.2,7.1,3.5,8.5c3.3,1.4,7.1-0.2,8.5-3.5l6-14.4c1.4-3.3-0.2-7.1-3.5-8.5 C195.5,372.8,191.7,374.4,190.3,377.7z"></path> <path d="M249.5,392v15.6c0,3.6,2.9,6.5,6.5,6.5c3.6,0,6.5-2.9,6.5-6.5V392c0-3.6-2.9-6.5-6.5-6.5S249.5,388.4,249.5,392L249.5,392z "></path> <path d="M313.2,374.2c-3.3,1.4-4.9,5.2-3.5,8.5l6,14.4c1.4,3.3,5.1,4.9,8.5,3.5c3.3-1.4,4.9-5.2,3.5-8.5l-6-14.4 C320.3,374.4,316.5,372.8,313.2,374.2L313.2,374.2z"></path> <path d="M321.7,94.3l6-14.4c1.4-3.3-0.2-7.1-3.5-8.5c-3.3-1.4-7.1,0.2-8.5,3.5l-6,14.4c-1.4,3.3,0.2,7.1,3.5,8.5 C316.5,99.2,320.3,97.6,321.7,94.3z"></path> <path d="M222.2,276.2v-80.5c0-18.4-14.9-33.3-33.3-33.3s-33.3,14.9-33.3,33.3v80.5c0,18.4,14.9,33.3,33.3,33.3 S222.2,294.6,222.2,276.2z M168.6,276.2v-80.5c0-11.2,9.1-20.3,20.3-20.3s20.3,9.1,20.3,20.3v80.5c0,11.2-9.1,20.3-20.3,20.3 S168.6,287.4,168.6,276.2z"></path> <path d="M115.4,195.8v80.5c0,11.9,2.9,23.7,8.4,34.1c1.7,3.2,5.6,4.4,8.7,2.7c3.2-1.7,4.4-5.6,2.7-8.7c-4.6-8.7-6.9-18.2-6.9-28.1 v-80.5c0-33.4,27.2-60.6,60.6-60.6s60.6,27.2,60.6,60.6v80.5c0,33.4-27.2,60.6-60.6,60.6c-12.9,0-25.3-4-35.7-11.6 c-2.9-2.1-6.9-1.5-9,1.4s-1.5,6.9,1.4,9c12.6,9.2,27.6,14.1,43.4,14.1c40.5,0,73.5-33,73.5-73.5v-80.5c0-40.5-33-73.5-73.5-73.5 S115.4,155.2,115.4,195.8L115.4,195.8z"></path> </g> <g> <path class="st3" d="M100.1,354.4h312.7v134H100.1V354.4z"></path> <path class="st4" d="M412.9,343.3H100.1c-6.2,0-11.2,5-11.2,11.2v134c0,6.2,5,11.2,11.2,11.2h312.7c6.2,0,11.2-5,11.2-11.2v-134 C424,348.3,419,343.3,412.9,343.3z M401.7,477.3H111.3V365.6h290.4V477.3z"></path> <path d="M166.8,390.4c0-4.9,3.7-8.6,8.6-8.6h35.6c4.2,0,7.7,3.5,7.7,7.7c0,4.2-3.5,7.7-7.7,7.7h-26.9v15.6h19.9 c4.2,0,7.7,3.4,7.7,7.6c0,4.2-3.5,7.7-7.7,7.7h-19.9v17.7h26.9c4.2,0,7.7,3.5,7.7,7.7c0,4.2-3.5,7.7-7.7,7.7h-35.6 c-4.9,0-8.6-3.7-8.6-8.6V390.4z"></path> <path d="M230.7,389.6c0-4.7,3.7-8.6,8.5-8.6c4.5,0,7.4,1.9,9.2,5.4l17,33.7h0.2l17-33.7c1.7-3.5,4.9-5.4,9.2-5.4 c4.8,0,8.5,4,8.5,8.6v63.7c0,4.8-3.8,8.6-8.6,8.6c-4.9,0-8.7-4-8.7-8.6v-35h-0.7l-7.9,16.4c-1.6,3.4-4.8,5.6-8.8,5.6 c-3.8,0-7.2-2.2-8.8-5.6l-7.9-16.4h-0.7v35c0,4.7-3.8,8.6-8.7,8.6c-4.8,0-8.6-3.8-8.6-8.6V389.6z"></path> <path d="M319.2,445.7h6.6v-48.5h-6.6c-4.2,0-7.7-3.5-7.7-7.7c0-4.2,3.5-7.7,7.7-7.7h30.5c4.2,0,7.7,3.5,7.7,7.7 c0,4.2-3.5,7.7-7.7,7.7H343v48.5h6.6c4.2,0,7.7,3.5,7.7,7.7c0,4.2-3.5,7.7-7.7,7.7h-30.5c-4.2,0-7.7-3.5-7.7-7.7 C311.5,449.2,315,445.7,319.2,445.7z"></path> </g> </svg> 