<?xml version="1.0" encoding="UTF-8"?> <svg xmlns="http://www.w3.org/2000/svg" id="Capa_1" height="512" viewBox="0 0 512 512" width="512"><g><g><path clip-rule="evenodd" d="m260.222 372.714c-38.555 22.282-55.331 131.748 45.885 129.858h192.384c3.521-2.147 5.009-5.783 5.009-9.447v-120.411h-4.78c-1.288.086-2.834 0-4.609 0-77.972 0-155.916 0-233.889 0z" fill="#cecece" fill-rule="evenodd"></path></g><g><path clip-rule="evenodd" d="m374.175 372.714h72.706 29.168 18.062 4.609c3.063-.2 4.78-1.346 4.78-6.699v-62.324c0-36.616-37.469-63.984-70.616-71.084l-156.26-.2c-12.308 2.462-25.304 7.787-36.782 15.373 0 0-46.895 57.788-42.954 96.715l10.495 26.607c10.819 1.612 85.929 1.612 85.929 1.612h40.961 19.951z" fill="#7bacdf" fill-rule="evenodd"></path></g><g><path clip-rule="evenodd" d="m339.282 273.746-20.495 68.365c-.2.601-.343.63-.057 1.145l15.543 29.459h19.951 19.951l15.572-29.459c.258-.515.115-.544-.057-1.145l-20.524-68.365-14.255-10.678z" fill="#fe9737" fill-rule="evenodd"></path></g><g><path clip-rule="evenodd" d="m354.911 229.772-15.629 6.156-6.125 13.827 6.125 23.991h14.942 14.942l6.383-24.993-6.383-14.829z" fill="#fe7600" fill-rule="evenodd"></path></g><g><path clip-rule="evenodd" d="m306.479 209.332c-10.82 8.216-25.962 20.183-29.912 23.017l.057.057 36.696 27.254c7.786 4.867 2.347 5.525 14.284-4.81l5.553-5.096 21.754-19.983c-.229 0-.458 0-.687 0l-15.199-25.021z" fill="#0078c8" fill-rule="evenodd"></path></g><g><path clip-rule="evenodd" d="m354.911 229.772 20.638 18.981 6.641 6.098c11.965 10.335 6.526 9.676 14.312 4.81l36.382-27.054.344-.258c-4.007-2.92-19.751-15.345-30.599-23.561l-31.143-2.977z" fill="#0078c8" fill-rule="evenodd"></path></g><g><path clip-rule="evenodd" d="m272.244 146.264c0 4.008.487 8.13 1.46 12.31 4.065 17.893 16.373 36.873 32.775 50.758 8.215 6.957 17.461 12.625 27.222 16.261 7.442 2.777 13.997 4.18 20.524 4.18h.687c6.297-.086 12.652-1.489 19.865-4.18 9.99-3.722 19.465-9.619 27.851-16.805 16.087-13.856 28.109-32.55 32.145-50.214.945-4.18 1.46-8.302 1.46-12.31v-45.548-6.012h-15.085c-31.916 0-38.586-39.335-77.6-39.335h-25.934c-29.884 0-7.127 45.347-41.505 45.347h-3.864v45.548z" fill="#ffe5c1" fill-rule="evenodd"></path></g><g><path clip-rule="evenodd" d="m308.941 25.28c-39.616 3.493-36.696 56.255-36.696 63.183v13.427 19.152h3.864c34.378 0 11.621-45.347 41.505-45.347h25.934c39.015 0 45.684 39.364 77.6 39.364h15.085v-11.938-27.026c0-60.176-96.951-90.207-127.292-50.815z" fill="#838383" fill-rule="evenodd"></path></g><g><path clip-rule="evenodd" d="m346.954 237.073 9.961 12.883c3.492 3.865 2.548 3.264.687 10.592l-3.378 13.198h14.942l6.383-24.993-20.638-18.981z" fill="#e6581f" fill-rule="evenodd"></path></g><g><path clip-rule="evenodd" d="m353.451 273.746 20.495 68.365c.2.601.344.63.057 1.145l-15.543 29.459h15.715l15.572-29.459c.258-.515.115-.544-.057-1.145l-20.524-68.365z" fill="#f36b37" fill-rule="evenodd"></path></g><g><path clip-rule="evenodd" d="m289.276 222.587c11.278 9.791 24.073 17.807 37.612 22.845 2.433.916 4.809 1.718 7.127 2.405.315.086.63.172.945.258l11.994-11.022 7.958-7.3c-.229 0-.458 0-.687 0-6.526 0-13.081-1.403-20.524-4.18-9.761-3.636-19.007-9.304-27.222-16.261-5.296 4.008-11.65 8.932-17.203 13.255z" fill="#0067b4" fill-rule="evenodd"></path></g><g><path clip-rule="evenodd" d="m402.628 208.788c-8.387 7.186-17.862 13.083-27.851 16.805-7.213 2.691-13.568 4.094-19.865 4.18l19.608 18.036c.2-.057.372-.115.544-.172 2.118-.63 4.294-1.374 6.526-2.204 13.797-5.153 26.792-13.341 38.242-23.389-5.64-4.381-11.994-9.305-17.204-13.256z" fill="#0067b4" fill-rule="evenodd"></path></g><g><path clip-rule="evenodd" d="m412.303 93.616v20.326c2.748.716 5.668 1.117 8.845 1.117h15.085v-11.938-2.405-6.012-18.609c0-44.317-52.583-72.287-92.399-68.221 34.177 6.212 68.469 31.319 68.469 67.133z" fill="#595959" fill-rule="evenodd"></path></g><g><path clip-rule="evenodd" d="m412.303 145.176c0 4.008-.487 8.13-1.46 12.31-5.668 24.878-26.048 49.241-48.661 61.78-6.727 3.722-14.627 6.899-22.155 8.417 4.952 1.403 9.561 2.09 14.198 2.09h.687c6.297-.086 12.652-1.489 19.865-4.18 9.99-3.722 19.465-9.619 27.851-16.805 16.087-13.856 28.109-32.55 32.145-50.214.945-4.18 1.46-8.302 1.46-12.31v-25.222-5.983h-15.085c-3.177 0-6.097-.401-8.845-1.117z" fill="#fed1a3" fill-rule="evenodd"></path></g><g><path clip-rule="evenodd" d="m80.147 364.154c-33.405 6.699-71.647 34.297-71.647 71.285v62.324c0 2.29.315 3.808.887 4.81 1.403 2.348 4.38 1.889 8.473 1.889h18.062 24.56 97.265 32.861 59.796 29.168 18.062c1.775 0 3.32.086 4.609 0 1.746-.115 3.063-.544 3.864-1.889.601-1.002.916-2.519.916-4.81v-62.324c0-27.913-21.783-50.443-46.801-62.725-8.158-4.008-16.659-6.899-24.875-8.56-32.774-11.051-134.677-9.562-155.2 0z" fill="#f9f7f7" fill-rule="evenodd"></path></g><g><path clip-rule="evenodd" d="m239.756 267.705h-163.989c0 4.008.487 8.13 1.46 12.31 4.437 19.467 18.606 40.223 37.212 54.308l39.559 16.748 47.058-16.748c18.634-14.085 32.803-34.841 37.24-54.308.944-4.179 1.46-8.302 1.46-12.31z" fill="#ffe5c1" fill-rule="evenodd"></path></g><g><path clip-rule="evenodd" d="m75.767 223.331v19.152 25.222c28.224 39.192 122.312 45.634 163.989 0l.086-19.925.258-50.243c.286-60.177-97.294-90.208-127.636-50.815-39.616 3.493-36.696 56.226-36.696 63.183v13.426z" fill="#838383" fill-rule="evenodd"></path></g><g><path clip-rule="evenodd" d="m201.056 334.323h-86.617-11.707c-2.805 0-3.492 2.806-5.124 5.096l-17.461 24.735c-1.632 2.29 2.29 5.096 5.124 5.096h144.982c2.805 0 6.555-2.691 5.095-5.096l-14.885-24.735c-1.431-2.405-2.29-5.096-5.095-5.096z" fill="#cecece" fill-rule="evenodd"></path></g><g><path clip-rule="evenodd" d="m230.252 369.25h-19.837c2.605 1.059 5.21 2.204 7.786 3.464 25.018 12.282 46.801 34.812 46.801 62.725v62.324c0 2.29-.315 3.808-.916 4.81-.801 1.346-2.118 1.775-3.864 1.889h19.35 18.062c1.775 0 3.32.086 4.609 0 1.746-.115 3.063-.544 3.864-1.889.601-1.002.916-2.519.916-4.81v-62.324c0-27.913-21.783-50.443-46.801-62.725-8.158-4.008-16.659-6.899-24.875-8.56 1.46 2.405-2.289 5.096-5.095 5.096z" fill="#e2e2e2" fill-rule="evenodd"></path></g><g><path clip-rule="evenodd" d="m179.902 341.853 2.204 3.636 7.127 11.852 4.122 6.814c1.431 2.405-2.319 5.096-5.124 5.096h22.184 19.837c2.805 0 6.555-2.691 5.095-5.096l-14.885-24.735c-1.431-2.405-2.29-5.096-5.095-5.096h-14.312-27.708c2.805 0 3.664 2.691 5.095 5.096z" fill="#b5adb6" fill-rule="evenodd"></path></g><g><path clip-rule="evenodd" d="m202.573 202.89-.258 50.243-.086 14.572-.029 5.354c0 4.008-.487 8.13-1.46 12.31-.572 2.577-1.345 5.182-2.233 7.787 15.915-5.182 30.37-13.541 41.248-25.451l.086-19.925.258-50.243c.258-52.39-73.622-81.906-112.78-62.725 36.382 3.951 75.425 29.974 75.254 68.078z" fill="#595959" fill-rule="evenodd"></path></g><g><path clip-rule="evenodd" d="m239.756 267.705c-10.877 11.909-25.333 20.269-41.248 25.451-5.181 14.686-15.4 29.516-28.481 41.168h3.32 27.708c18.634-14.085 32.803-34.841 37.24-54.308.945-4.18 1.461-8.303 1.461-12.311z" fill="#fed1a3" fill-rule="evenodd"></path></g><g><path clip-rule="evenodd" d="m432.884 232.607-21.783 16.204c31.057 9.276 63.231 35.299 63.231 69.223v54.68h1.717 18.062 4.609c3.063-.2 4.78-1.346 4.78-6.699v-62.324c0-36.616-37.469-63.984-70.616-71.084z" fill="#3987d0" fill-rule="evenodd"></path></g><g><path clip-rule="evenodd" d="m448.599 471.596c-11.679 13.627-25.619 24.019-40.503 30.976h90.396c3.521-2.147 5.009-5.783 5.009-9.447v-120.411h-4.78c-1.288.086-2.834 0-4.609 0h-18.062-1.288c7.642 32.178-1.003 69.51-26.163 98.882z" fill="#b5adb6" fill-rule="evenodd"></path></g><g><path d="m313.872 144.438c1.477-1.477 3.44-2.291 5.53-2.291 2.091 0 4.055.814 5.531 2.291 1.465 1.464 3.384 2.197 5.304 2.197 1.919 0 3.839-.732 5.303-2.196 2.93-2.929 2.93-7.678.001-10.607-4.311-4.31-10.041-6.684-16.139-6.684-6.097 0-11.827 2.374-16.138 6.684-2.929 2.929-2.929 7.678.001 10.607 2.928 2.929 7.677 2.928 10.607-.001z"></path><path d="m384.888 144.439c1.478-1.478 3.442-2.291 5.532-2.291s4.054.814 5.53 2.291c1.465 1.464 3.384 2.197 5.304 2.197 1.919 0 3.839-.732 5.303-2.196 2.93-2.929 2.93-7.678.001-10.607-4.311-4.31-10.041-6.684-16.138-6.684s-11.828 2.374-16.138 6.684c-2.93 2.929-2.93 7.678-.001 10.607 2.93 2.926 7.679 2.928 10.607-.001z"></path><path d="m338.759 192.534c4.311 4.31 10.041 6.684 16.138 6.684 6.098 0 11.828-2.374 16.139-6.684 2.929-2.929 2.929-7.678-.001-10.607-2.928-2.929-7.677-2.928-10.606 0-1.477 1.477-3.44 2.291-5.531 2.291-2.09 0-4.054-.813-5.53-2.291-2.929-2.928-7.678-2.929-10.606 0-2.932 2.929-2.932 7.678-.003 10.607z"></path><path d="m511 303.693c0-10.77-2.84-21.281-8.43-31.241-2.03-3.61-6.6-4.9-10.21-2.87s-4.9 6.6-2.87 10.21c4.32 7.69 6.51 15.73 6.51 23.901v61.521h-41.62v-36.53c0-4.14-3.36-7.5-7.5-7.5s-7.5 3.36-7.5 7.5v36.53h-52.759l9.759-18.449c.02-.05.05-.1.07-.15 1.08-2.16 1.22-4.4.41-6.7l-19.91-66.332 2.78-10.88c1.67 1.54 2.83 2.72 3.68 3.59 1.54 1.57 4.17 4.25 7.87 4.25 1.9 0 4.07-.7 6.52-2.62.68-.53 1.46-1.14 2.68-1.9.17-.11.34-.22.5-.34l33.56-24.961c11.11 2.82 22.29 7.93 31.89 14.641 1.31.91 2.81 1.35 4.29 1.35 2.37 0 4.7-1.12 6.15-3.21 2.38-3.39 1.55-8.07-1.85-10.44-11.36-7.94-24.68-13.941-37.88-17.151-2.14-1.59-6.6-5.05-11.71-9.02-3.59-2.79-7.47-5.8-11.2-8.67 13.66-13.73 23.95-30.841 27.86-47.992 1.09-4.83 1.64-9.53 1.64-13.96v-70.175c0-30.581-23.19-58.232-59.07-70.452-15.07-5.13-31.03-6.84-44.93-4.81-14.52 2.11-26.43 8.1-34.66 17.37-16.77 2.61-41.19 15.571-40.34 69.012.01.51.01.93.01 1.25v57.802c0 4.58.56 9.29 1.65 13.97 3.95 17.391 14.47 34.741 28.44 48.572-3.19 2.46-6.46 5-9.5 7.36-4.88 3.79-9.52 7.4-12.02 9.27-8.78 1.93-17.58 5.1-25.89 9.3l.18-37.171c.14-30.441-22.92-58.052-58.77-70.352-26.85-9.22-61.49-8.71-80.24 12.42-16.77 2.62-41.18 15.58-40.34 69.012.01.51.02.94.02 1.25v57.802c0 4.58.55 9.3 1.64 13.98 3.69 16.171 13.54 33.111 26.85 46.922-2.43 1.64-3.8 4.01-4.56 5.31-.26.45-.5.87-.72 1.18l-15.78 22.353c-14.39 3.34-28.88 10.04-41.08 19.051-3.34 2.46-4.04 7.16-1.58 10.49 1.47 1.99 3.74 3.05 6.04 3.05 1.54 0 3.1-.48 4.44-1.47 9.66-7.12 20.93-12.57 32.26-15.671 2.5 2.34 6.04 3.85 9.49 3.85h144.98c3.47 0 6.99-1.49 9.47-3.85 5.535 1.498 11.039 3.544 16.343 6.059.539.36 1.129.647 1.754.859 22.966 11.446 41.703 31.817 41.703 55.624v61.524h-1.588c-.102 0-.198-.002-.302-.002h-39.726v-36.528c0-4.142-3.357-7.5-7.5-7.5s-7.5 3.358-7.5 7.5v36.528h-174.923v-36.528c0-4.142-3.357-7.5-7.5-7.5s-7.5 3.358-7.5 7.5v36.528h-35.121c-.65 0-1.27.01-1.86.02v-61.542c0-8.08 2.13-16.031 6.33-23.621 2.01-3.62.7-8.19-2.93-10.19-3.62-2.01-8.18-.7-10.19 2.93-5.45 9.841-8.21 20.231-8.21 30.881v62.322c0 3.11.39 7.61 3.72 10.89 3.05 3 6.78 3.35 10.03 3.35.51 0 1.02-.01 1.5-.02.51-.01 1.05-.02 1.61-.02h42.583c.013 0 .026.002.039.002s.026-.002.039-.002h130.049c.013 0 .026.002.039.002h107.181c.509.002 1.002.009 1.462.018.49.01.99.02 1.5.02.521 0 1.055-.011 1.595-.038h188.389c13.925 0 20.267-9.764 20.267-18.837v-120.41c0-.82-.136-1.607-.379-2.345.309-1.566.379-3.079.379-4.354v-62.322zm-129.14 38.431-12.199 23.09h-30.863l-12.188-23.09 18.25-60.882h18.73zm-40.33-89.883 13.38-12.28 12.27 11.27-3.84 15.011h-18.23zm74.7-23.501c1.62 1.25 3.14 2.44 4.54 3.52l-28.51 21.211c-.1.06-.19.12-.28.18-1.22-1.19-2.79-2.66-4.8-4.4l-15.88-14.601c1.97-.58 4-1.25 6.1-2.03 8.87-3.31 17.45-8.24 25.35-14.31 4.39 3.37 9.15 7.06 13.48 10.43zm-106.63-195.986c2.09-.19 4-1.24 5.28-2.9 8.19-10.62 21.95-14.871 36.55-14.871 9.56 0 19.46 1.82 28.39 4.86 22.56 7.68 48.91 27.021 48.91 56.252v31.461h-7.58c-12.19 0-19.8-7.13-29.43-16.171-11.59-10.87-24.72-23.191-48.17-23.191h-25.94c-20.53 0-23.92 16.531-26.17 27.481-2.37 11.57-4.12 16.571-11.7 17.641v-24.85c0-.38 0-.88-.01-1.49-.37-23.501 4.51-51.992 29.87-54.222zm-28.59 124.114c-.84-3.6-1.27-7.17-1.27-10.6v-17.881c20.65-1.75 24.09-18.441 26.4-29.701 2.53-12.36 3.99-15.491 11.47-15.491h25.94c17.52 0 27.42 9.29 37.91 19.131 10.6 9.95 21.56 20.231 39.69 20.231h7.58v23.711c0 3.32-.43 6.91-1.27 10.64-5.83 25.561-29.61 52.062-55.3 61.652-6.8 2.53-12.5 3.71-17.94 3.71-5.43 0-11.12-1.18-17.9-3.7-25.73-9.6-49.5-36.101-55.31-61.702zm13.52 71.153c3.8-2.95 7.95-6.18 11.86-9.18 7.71 5.83 16.06 10.56 24.69 13.781 2.46.92 4.82 1.68 7.12 2.32l-15.59 14.311c-2 1.74-3.57 3.21-4.78 4.39-.09-.06-.18-.11-.27-.17l-28.52-21.191c1.67-1.301 3.52-2.731 5.49-4.261zm-211.26 37.151v-55.272c0-.37-.01-.87-.02-1.49-.37-23.501 4.51-51.982 29.87-54.212 2.09-.19 4.01-1.24 5.29-2.9 13.63-17.701 42.74-17.721 65.55-9.89 22.53 7.72 48.78 27.051 48.64 56.092l-.23 46.322-.07 15.05-.03 5.82c-18.8 19.001-49.91 29.121-83.95 27.131-28.41-1.651-53.03-11.791-65.05-26.651zm4.76 23.931c15.43 10.02 36.19 16.351 59.42 17.701 3.08.18 6.13.27 9.17.27 27.13 0 52.32-7.07 71.61-19.831-5.53 14.401-16.32 28.841-29.78 39.581h-81.41c-12.86-10.26-23.28-23.921-29.01-37.721zm2.99 72.642 12.7-17.971c.49-.7.9-1.37 1.24-1.95h9.47.01 86.61.01 12.15c.26.48.53.96.83 1.46l11.11 18.461zm135.89-26.161c-.2-.34-.39-.68-.57-1.02-.95-1.76-2.88-5.29-6.7-6.9 12.88-13.64 22.37-30.191 25.97-45.992 1.08-4.8 1.64-9.47 1.64-13.87 0-.02.01-.04.01-.06l.08-15.801c8.62-5.21 18.21-9.21 27.57-11.47l33.94 25.211c.16.12.32.23.49.34 1.23.76 2 1.37 2.69 1.9 2.45 1.92 4.62 2.63 6.51 2.63 3.7 0 6.33-2.69 7.86-4.26.65-.67 1.49-1.52 2.58-2.57l2.52 9.86-19.83 66.162c-.93 2.41-.78 4.79.45 7.06l9.715 18.409h-59.915c-7.055-3.329-14.421-5.948-21.809-7.689zm263.823 161.377h-176.213v-61.524c0-19.221-8.92-37.401-25.79-52.572-1.003-.902-2.037-1.783-3.085-2.651h48.617c.006 0 .012.001.018.001.007 0 .014-.001.021-.001h19.895c.008 0 .016.001.024.001h19.95.02 119.92c.56 0 1.1.01 1.62.02.086.002.182.001.27.002v112.887c0 1.994-.638 3.837-5.267 3.837z"></path></g></g></svg> 