<?xml version="1.0" encoding="UTF-8"?> <!-- Generator: Adobe Illustrator 19.0.0, SVG Export Plug-In . SVG Version: 6.00 Build 0) --> <svg xmlns="http://www.w3.org/2000/svg" xmlns:xlink="http://www.w3.org/1999/xlink" version="1.1" id="Layer_1" x="0px" y="0px" viewBox="0 0 512 512" style="enable-background:new 0 0 512 512;" xml:space="preserve" width="512" height="512"> <g id="XMLID_614_"> <g id="XMLID_2055_"> <g id="XMLID_1834_"> <circle id="XMLID_1850_" style="fill:#93E7F8;" cx="256" cy="142.09" r="132"></circle> </g> <g id="XMLID_1750_"> <path id="XMLID_2188_" style="fill:#009FFF;" d="M95.556,332.436l-57.342,33.107c-2.801,1.617-3.761,5.199-2.144,8 l72.418,125.432c1.617,2.801,5.199,3.761,8,2.144l57.342-33.107c2.801-1.617,3.761-5.199,2.144-8L103.557,334.58 C101.939,331.779,98.358,330.819,95.556,332.436z"></path> <path id="XMLID_2187_" style="fill:#FF765B;" d="M95.556,332.436l-57.342,33.107c-2.801,1.617-3.761,5.199-2.144,8 l72.418,125.432c1.617,2.801,5.199,3.761,8,2.144l57.342-33.107c2.801-1.617,3.761-5.199,2.144-8L103.557,334.58 C101.939,331.779,98.358,330.819,95.556,332.436z"></path> <path id="XMLID_2154_" style="fill:#FED2A4;" d="M113.786,352.298l66.45-34.197c15.867-8.166,34.163-10.277,51.473-5.94 l94.569,23.694c10.853,2.719,18.465,12.474,18.465,23.662v0c0,13.472-10.921,24.394-24.394,24.394h-74.33h63.523h19.416 c6.985,0,13.684-2.775,18.623-7.714l84.405-84.405c9.492-9.492,24.611-10.311,35.073-1.899l0,0 c12.194,9.805,13.18,28.023,2.116,39.087l-88.95,88.95c-13.919,13.919-32.797,21.738-52.481,21.738H166.148L113.786,352.298z"></path> <path id="XMLID_2694_" style="fill:none;" d="M95.556,332.436l-57.342,33.107c-2.801,1.617-3.761,5.199-2.144,8l72.418,125.432 c1.617,2.801,5.199,3.761,8,2.144l57.342-33.107c2.801-1.617,3.761-5.199,2.144-8L103.557,334.58 C101.939,331.779,98.358,330.819,95.556,332.436z"></path> </g> </g> <g id="XMLID_592_"> <g id="XMLID_593_"> <path id="XMLID_611_" d="M256,284.09c78.299,0,142-63.701,142-142s-63.701-142-142-142s-142,63.701-142,142 S177.701,284.09,256,284.09z M256,20.09c67.271,0,122,54.729,122,122s-54.729,122-122,122s-122-54.729-122-122 S188.729,20.09,256,20.09z"></path> <path id="XMLID_610_" d="M345.523,152.202h8.493c5.522,0,10-4.477,10-10s-4.478-10-10-10h-8.493c-5.522,0-10,4.477-10,10 S340.001,152.202,345.523,152.202z"></path> <path id="XMLID_609_" d="M176.477,141.978c0-5.523-4.478-10-10-10h-8.493c-5.522,0-10,4.477-10,10s4.478,10,10,10h8.493 C171.999,151.978,176.477,147.501,176.477,141.978z"></path> <path id="XMLID_608_" d="M256.112,62.566c5.522,0,10-4.477,10-10v-8.493c0-5.523-4.478-10-10-10s-10,4.477-10,10v8.493 C246.112,58.089,250.59,62.566,256.112,62.566z"></path> <path id="XMLID_607_" d="M255.888,221.613c-5.522,0-10,4.477-10,10v8.493c0,5.523,4.478,10,10,10s10-4.477,10-10v-8.493 C265.888,226.09,261.41,221.613,255.888,221.613z"></path> <path id="XMLID_606_" d="M248.832,149.064l0.112,0.112c1.951,1.943,4.503,2.914,7.056,2.914c2.56,0,5.119-0.977,7.071-2.929 L332.2,80.032c3.905-3.905,3.905-10.237,0-14.143c-3.906-3.905-10.236-3.904-14.143,0L256,127.948l-36.052-36.052 c-3.905-3.905-10.235-3.905-14.143,0c-3.905,3.905-3.905,10.237,0,14.142L248.832,149.064z"></path> <path id="XMLID_604_" d="M473.325,282.101c-14.469-11.636-35.281-10.51-48.41,2.62l-70.445,70.445 c-1.76-13.919-11.859-25.527-25.761-29.011l-94.569-23.693c-19.678-4.931-40.444-2.533-58.479,6.748l-57.978,29.837l-5.465-9.465 c-2.118-3.669-5.538-6.293-9.63-7.39c-4.087-1.093-8.362-0.532-12.031,1.585l-57.343,33.106 c-7.571,4.371-10.175,14.088-5.804,21.66l72.418,125.431c2.118,3.669,5.537,6.293,9.628,7.39 c1.366,0.366,2.753,0.547,4.131,0.547c2.747,0,5.459-0.721,7.902-2.131l57.341-33.106c7.572-4.371,10.177-14.088,5.805-21.661 l-56.941-98.625l57.117-29.395c13.715-7.058,29.506-8.88,44.467-5.131l94.569,23.693c6.416,1.607,10.896,7.35,10.896,13.963 c0,7.937-6.457,14.394-14.395,14.394h-10.807h-63.522c-5.522,0-10,4.478-10,10s4.478,10,10,10h63.522h10.807h8.608 c9.706,0,18.831-3.779,25.694-10.643l84.405-84.405c5.893-5.895,15.238-6.401,21.734-1.177c3.655,2.938,5.808,7.137,6.061,11.819 c0.254,4.683-1.433,9.088-4.749,12.403l-88.95,88.95c-12.129,12.13-28.256,18.81-45.409,18.81h-81.597c-5.522,0-10,4.478-10,10 s4.478,10,10,10h81.597c22.495,0,43.645-8.761,59.552-24.667l88.95-88.95c7.278-7.279,11.134-17.349,10.577-27.627 C486.267,298.146,481.347,288.551,473.325,282.101z M149.253,470.655l-24.859-43.057c-2.762-4.781-8.878-6.422-13.66-3.66 c-4.783,2.762-6.422,8.877-3.66,13.66l24.859,43.058l-16.854,9.731L46.803,372.132l50.165-28.963l68.274,118.254L149.253,470.655 z"></path> <path id="XMLID_603_" d="M462,33.901c5.522,0,10-4.477,10-10V10.09c0-5.523-4.478-10-10-10s-10,4.477-10,10v13.811 C452,29.424,456.478,33.901,462,33.901z"></path> <path id="XMLID_602_" d="M462,100.09c5.522,0,10-4.477,10-10V76.279c0-5.523-4.478-10-10-10s-10,4.477-10,10V90.09 C452,95.613,456.478,100.09,462,100.09z"></path> <path id="XMLID_601_" d="M502,40.09h-13.812c-5.522,0-10,4.477-10,10s4.478,10,10,10H502c5.522,0,10-4.477,10-10 S507.522,40.09,502,40.09z"></path> <path id="XMLID_600_" d="M422,60.09h13.812c5.522,0,10-4.477,10-10s-4.478-10-10-10H422c-5.522,0-10,4.477-10,10 S416.478,60.09,422,60.09z"></path> <path id="XMLID_599_" d="M50,239.901c5.522,0,10-4.477,10-10V216.09c0-5.523-4.478-10-10-10s-10,4.477-10,10v13.811 C40,235.424,44.478,239.901,50,239.901z"></path> <path id="XMLID_598_" d="M50,306.09c5.522,0,10-4.478,10-10v-13.812c0-5.522-4.478-10-10-10s-10,4.478-10,10v13.812 C40,301.612,44.478,306.09,50,306.09z"></path> <path id="XMLID_597_" d="M76.188,266.09H90c5.522,0,10-4.478,10-10c0-5.523-4.478-10-10-10H76.188c-5.522,0-10,4.477-10,10 C66.188,261.612,70.666,266.09,76.188,266.09z"></path> <path id="XMLID_596_" d="M33.812,256.09c0-5.523-4.478-10-10-10H10c-5.522,0-10,4.477-10,10c0,5.522,4.478,10,10,10h13.812 C29.334,266.09,33.812,261.612,33.812,256.09z"></path> <path id="XMLID_595_" d="M206.149,429.667c-2.64,0-5.21,1.07-7.069,2.93c-1.87,1.86-2.931,4.44-2.931,7.07s1.061,5.21,2.931,7.07 c1.859,1.859,4.439,2.93,7.069,2.93c2.631,0,5.21-1.07,7.07-2.93c1.86-1.86,2.93-4.44,2.93-7.07s-1.069-5.21-2.93-7.07 C211.359,430.737,208.78,429.667,206.149,429.667z"></path> <path id="XMLID_594_" d="M88.66,390.887c-1.86,1.86-2.931,4.44-2.931,7.07s1.07,5.21,2.931,7.07 c1.859,1.859,4.439,2.93,7.069,2.93c2.641,0,5.21-1.07,7.07-2.93c1.87-1.86,2.93-4.44,2.93-7.07s-1.06-5.21-2.93-7.07 c-1.86-1.859-4.43-2.93-7.07-2.93C93.1,387.957,90.52,389.027,88.66,390.887z"></path> </g> </g> </g> </svg> 