<?xml version="1.0" encoding="UTF-8"?> <!-- Generator: Adobe Illustrator 19.0.0, SVG Export Plug-In . SVG Version: 6.00 Build 0) --> <svg xmlns="http://www.w3.org/2000/svg" xmlns:xlink="http://www.w3.org/1999/xlink" version="1.1" id="Layer_1" x="0px" y="0px" viewBox="0 0 510.322 510.322" style="enable-background:new 0 0 510.322 510.322;" xml:space="preserve" width="512" height="512"> <g> <g> <g> <path style="fill:#576574;" d="M253.635,5.687c-50.984,0-92.312,41.328-92.312,92.312v36.53 c6.17-5.719,14.946-8.827,23.515-7.682v-4.6c0-3.657,3.122-6.545,6.743-6.271c35.691,2.564,72.013-8.777,99.476-26.718 c2.564-1.675,5.959-1.259,8.042,0.98c23.479,25.238,23.338,24.261,23.338,27.556v9.033c9.391-1.408,17.722,1.495,23.51,6.876 V97.999C345.946,47.016,304.619,5.687,253.635,5.687z"></path> <g> <path style="fill:#3E4B5A;" d="M186.101,97.999c0-46.78,34.802-85.405,79.923-91.461c-4.055-0.544-8.185-0.851-12.388-0.851 c-50.984,0-92.311,41.328-92.311,92.312v36.53c6.169-5.719,14.946-8.827,23.514-7.682v-4.6c0-1.42,0.475-2.721,1.263-3.769 V97.999z"></path> </g> <path style="fill:#F2BB88;" d="M321.213,123.159v50.568c0,0.548-0.029,1.09-0.042,1.636c17.895,2.71,31.91-10.22,31.91-26.1 C353.082,133.351,339.055,120.484,321.213,123.159z"></path> <path style="fill:#F2BB88;" d="M186.061,173.727v-50.549c-15.579-2.08-31.869,9.876-31.869,26.084 c0,15.859,13.984,28.812,31.909,26.099C186.088,174.816,186.061,174.273,186.061,173.727z"></path> <path style="fill:#E3A76F;" d="M343.601,129.05c-5.719-4.744-13.587-7.211-22.387-5.892v50.568c0,0.548-0.028,1.09-0.042,1.636 c8.827,1.336,16.706-1.137,22.429-5.888V129.05z"></path> <path style="fill:#E3A76F;" d="M186.061,169.477c-5.882-4.884-9.481-12.173-9.481-20.215c0-7.824,3.802-14.652,9.481-19.393 v-6.691c-15.579-2.08-31.869,9.876-31.869,26.084c0,15.859,13.984,28.812,31.909,26.099c-0.013-0.546-0.04-1.089-0.04-1.635 V169.477z"></path> <path style="fill:#F2BB88;" d="M254.619,240.32c-14.914,0-28.02-4.094-38.739-10.943v36.229l38.573,47.612l38.573-47.612v-37.25 C282.098,235.893,268.868,240.32,254.619,240.32z"></path> <path style="fill:#E3A76F;" d="M240.583,239.044c-9.196-1.706-17.492-5.059-24.703-9.667v36.229l24.703,30.492V239.044z"></path> <path style="fill:#E4EAF8;" d="M395.068,302.678L293.025,263.16l-38.572,47.612l-38.574-47.612l-101.936,39.519 c0,0-37.742,15.516-37.742,58.541v89.487c0,4.849,3.931,8.78,8.78,8.78h339.126c4.807,0,8.703-3.897,8.703-8.703V361.22 C432.81,318.195,395.068,302.678,395.068,302.678z"></path> <g> <path style="fill:#D8DCE5;" d="M100.905,450.707V350.103c0-29.519,17.764-46.086,28.917-53.581l-15.879,6.156 c0,0-37.742,15.516-37.742,58.541v89.487c0,4.849,3.931,8.779,8.779,8.779h24.703 C104.836,459.486,100.905,455.556,100.905,450.707z"></path> </g> <path style="fill:#F2D1A5;" d="M299.099,87.793c-2.084-2.239-5.479-2.656-8.042-0.98c-27.463,17.941-63.785,29.282-99.476,26.718 c-3.62-0.274-6.743,2.614-6.743,6.271v55.148c0,35.444,27.772,67.817,69.781,67.817c37.395,0,67.818-30.423,67.818-67.817v-59.6 C322.436,112.054,322.578,113.03,299.099,87.793z"></path> <g> <path style="fill:#F2BB88;" d="M209.541,174.95v-61.277c-5.975,0.318-11.977,0.287-17.961-0.143 c-3.62-0.274-6.743,2.614-6.743,6.271v55.148c0,35.444,27.772,67.817,69.781,67.817c3.876,0,7.67-0.344,11.37-0.972 C233.99,236.368,209.541,208.468,209.541,174.95z"></path> </g> <path style="fill:#D8DCE5;" d="M301.026,335.237l28.844-57.808l-36.845-14.27l-38.573,47.612l37.607,26.709 C295.104,339.643,299.359,338.579,301.026,335.237z"></path> <path style="fill:#D8DCE5;" d="M207.932,335.237l-28.844-57.808l36.845-14.27l38.573,47.612l-37.607,26.709 C213.855,339.643,209.6,338.579,207.932,335.237z"></path> <path style="fill:#EE5253;" d="M254.502,310.805v-0.033l-0.023,0.017l-0.023-0.017v0.033l-27.353,19.426l12.929,19.459 c10.431,0,18.464,0,28.893,0l12.929-19.459L254.502,310.805z"></path> <path style="fill:#FF6B6B;" d="M220.433,459.486h68.092l-19.599-109.796c-10.431,0-18.464,0-28.893,0L220.433,459.486z"></path> <path style="fill:#D83941;" d="M268.167,320.51l-13.665-9.705v-0.033l-0.023,0.017l-0.024-0.017v0.033l-27.353,19.426 l12.929,19.459c10.06,0,17.873,0,27.376,0l-10.616-15.978c-1.289-1.94-0.804-4.553,1.095-5.902L268.167,320.51z"></path> <path style="fill:#EE5253;" d="M240.032,349.691l-19.599,109.795h27.376l19.599-109.795 C257.864,349.691,250.131,349.691,240.032,349.691z"></path> </g> <path style="fill:#FBC856;" d="M307.413,443.087c2.918-2.845,1.308-7.801-2.725-8.387l-29.07-4.224 c-1.602-0.233-2.986-1.239-3.702-2.69l-13-26.342c-1.804-3.655-7.015-3.655-8.819,0l-13,26.342 c-0.716,1.451-2.101,2.457-3.702,2.69l-29.07,4.224c-4.033,0.586-5.644,5.543-2.725,8.387l21.035,20.504 c1.159,1.13,1.688,2.757,1.414,4.352l-4.966,28.953c-0.689,4.017,3.527,7.08,7.135,5.184l26.001-13.67 c1.433-0.753,3.144-0.753,4.577,0l26.001,13.67c3.608,1.897,7.824-1.167,7.135-5.184l-4.966-28.953 c-0.273-1.595,0.255-3.223,1.414-4.352L307.413,443.087z"></path> <path style="fill:#FBC856;" d="M442.083,443.087c2.918-2.845,1.308-7.801-2.725-8.387l-29.07-4.224 c-1.602-0.233-2.986-1.239-3.702-2.69l-13-26.342c-1.804-3.655-7.015-3.655-8.819,0l-13,26.342 c-0.716,1.451-2.101,2.457-3.702,2.69l-29.07,4.224c-4.033,0.586-5.644,5.543-2.725,8.387l21.035,20.504 c1.159,1.13,1.688,2.757,1.414,4.352l-4.966,28.953c-0.689,4.017,3.527,7.08,7.135,5.184l26.001-13.67 c1.433-0.753,3.144-0.753,4.577,0l26.001,13.67c3.607,1.897,7.824-1.167,7.135-5.184l-4.966-28.953 c-0.273-1.595,0.255-3.223,1.414-4.352L442.083,443.087z"></path> <path style="fill:#FBC856;" d="M172.743,443.087c2.918-2.845,1.308-7.801-2.725-8.387l-29.07-4.224 c-1.602-0.233-2.986-1.239-3.702-2.69l-13-26.342c-1.804-3.655-7.015-3.655-8.819,0l-13,26.342 c-0.716,1.451-2.101,2.457-3.702,2.69l-29.07,4.224c-4.033,0.586-5.644,5.543-2.725,8.387l21.035,20.504 c1.159,1.13,1.688,2.757,1.414,4.352l-4.966,28.953c-0.689,4.017,3.527,7.08,7.135,5.184l26.001-13.67 c1.433-0.753,3.144-0.753,4.577,0l26.001,13.67c3.607,1.897,7.824-1.167,7.135-5.184l-4.966-28.953 c-0.273-1.595,0.255-3.223,1.414-4.352L172.743,443.087z"></path> <g> <path style="fill:#F4B537;" d="M244.048,467.944c0.273-1.595-0.255-3.223-1.414-4.353l-21.035-20.504 c-2.918-2.845-1.308-7.801,2.725-8.387l29.07-4.224c1.602-0.233,2.986-1.239,3.702-2.69l7.41-15.015l-5.591-11.328 c-1.804-3.655-7.015-3.655-8.819,0l-13,26.342c-0.716,1.451-2.101,2.457-3.702,2.69l-29.07,4.224 c-4.033,0.586-5.644,5.542-2.725,8.387l21.035,20.504c1.159,1.13,1.688,2.757,1.414,4.353l-4.966,28.953 c-0.689,4.017,3.527,7.08,7.135,5.184l13.163-6.92L244.048,467.944z"></path> </g> <g> <path style="fill:#F4B537;" d="M378.718,467.944c0.273-1.595-0.255-3.223-1.414-4.353l-21.035-20.504 c-2.918-2.845-1.308-7.801,2.725-8.387l29.07-4.224c1.602-0.233,2.986-1.239,3.702-2.69l7.41-15.014l-5.591-11.328 c-1.804-3.655-7.015-3.655-8.819,0l-13,26.342c-0.716,1.451-2.101,2.457-3.702,2.69l-29.07,4.224 c-4.033,0.586-5.644,5.542-2.725,8.387l21.035,20.504c1.159,1.13,1.688,2.757,1.414,4.353l-4.966,28.953 c-0.689,4.017,3.527,7.08,7.135,5.184l13.163-6.92L378.718,467.944z"></path> </g> <g> <path style="fill:#F4B537;" d="M109.378,467.944c0.273-1.595-0.255-3.223-1.414-4.353l-21.035-20.504 c-2.918-2.845-1.308-7.801,2.725-8.387l29.07-4.224c1.602-0.233,2.986-1.239,3.702-2.69l7.41-15.014l-5.591-11.328 c-1.804-3.655-7.015-3.655-8.819,0l-13,26.342c-0.716,1.451-2.101,2.457-3.702,2.69l-29.07,4.224 c-4.033,0.586-5.644,5.542-2.725,8.387l21.035,20.504c1.159,1.13,1.688,2.757,1.414,4.353l-4.966,28.953 c-0.689,4.017,3.527,7.08,7.135,5.184l13.163-6.92L109.378,467.944z"></path> </g> </g> <g> <path d="M447.974,448.609c7.367-7.181,3.295-19.701-6.883-21.18l-0.126-0.018v-27.532c0-4.143-3.357-7.5-7.5-7.5 s-7.5,3.357-7.5,7.5v25.353l-12.6-1.83l-12.399-25.124c-4.546-9.217-17.714-9.23-22.271-0.001l-1.964,3.979v-26.096 c0-4.143-3.357-7.5-7.5-7.5s-7.5,3.357-7.5,7.5v47.904l-23.162,3.365c-10.177,1.479-14.248,13.996-6.882,21.181l9.775,9.527 h-37.933c3.123-3.045,1.099-1.071,9.774-9.527c0-0.001,0.001-0.001,0.001-0.002c7.343-7.133,3.33-19.695-6.883-21.179 l-16.509-2.399l-12.442-73.511l7.003-10.541l3.897,2.768c6.78,4.816,16.291,2.461,20.021-5.009c0-0.001,0-0.001,0-0.001 l25.794-51.696l58.723,22.742c2.07,0.886,33.055,14.776,33.055,51.588v3.508c0,4.143,3.357,7.5,7.5,7.5s7.5-3.357,7.5-7.5v-3.508 c0-47.504-40.658-64.766-42.39-65.478c-0.047-0.02-0.095-0.039-0.143-0.058l-97.253-37.663V234.75 c15.514-11.968,26.239-29.834,28.799-50.216c18.678-1.067,32.481-16.1,32.481-33.898c0-8.255-3.007-16.134-8.358-22.244V98.151 c0-47.798-34.022-89.019-80.898-98.014c-4.06-0.782-7.998,1.883-8.778,5.952c-0.781,4.067,1.884,7.998,5.952,8.778 c39.821,7.643,68.725,42.668,68.725,83.283v20.306c-2.724-0.899-5.576-1.455-8.511-1.671c0-8.162,0.68-5.979-25.346-33.95 l-0.001-0.001c-4.586-4.928-12.003-5.831-17.635-2.15c-27.755,18.131-61.479,27.417-92.843,25.637 c-5.326-0.303-8.023-0.092-12.357,3.52l0,0c-2.087,1.936-3.518,4.539-4.096,7.165c-2.545,0.262-6.005,1.01-8.835,2.042V98.151 c0-40.615,28.903-75.641,68.725-83.283c4.068-0.78,6.733-4.711,5.952-8.778c-0.779-4.067-4.714-6.737-8.778-5.952 c-46.876,8.995-80.898,50.216-80.898,98.014v31.027c-5.411,6.054-8.355,13.53-8.355,21.458c0,17.772,13.77,32.828,32.473,33.897 c2.524,20.294,13.225,39.004,30.438,51.398v22.243l-97.147,37.662c-0.047,0.019-0.094,0.037-0.141,0.057 c-1.731,0.712-42.39,17.974-42.39,65.478v66.04l-0.126,0.018c-4.712,0.685-8.553,3.923-10.024,8.45 c-1.472,4.528-0.268,9.406,3.142,12.73l20.063,19.556l-4.737,27.615c-0.804,4.692,1.089,9.346,4.941,12.145 c3.85,2.798,8.86,3.161,13.076,0.944l24.8-13.037l24.799,13.037c4.212,2.215,9.224,1.853,13.076-0.944 c3.853-2.799,5.745-7.452,4.94-12.146l-3.884-22.643h56.805l-3.884,22.644c-1.736,10.137,8.911,17.877,18.018,13.089l24.8-13.037 l24.799,13.037c4.212,2.215,9.224,1.853,13.076-0.944c3.853-2.799,5.745-7.452,4.94-12.146l-3.884-22.643h56.805l-3.884,22.644 c-1.736,10.137,8.911,17.877,18.018,13.089l24.8-13.037l24.799,13.037c9.103,4.787,19.755-2.951,18.017-13.09l-4.736-27.614 L447.974,448.609C447.974,448.609,447.974,448.609,447.974,448.609z M330.591,131.862c10.062,1.298,16.869,9.487,16.869,18.774 c0,9.355-6.851,17.495-16.869,18.781V131.862z M177.992,169.417c-10.001-1.284-16.869-9.4-16.869-18.781 c0-9.237,7.839-16.648,16.869-18.413V169.417z M320.138,281.6l-24.429,48.96c-2.964-2.105-27.191-19.313-29.743-21.126 l30.102-37.155L320.138,281.6z M265.559,342.342h-20.851l-6.68-10.053l17.105-12.148l17.106,12.148L265.559,342.342z M272.194,410.228l-5.898-11.951c-4.556-9.236-17.721-9.223-22.271-0.001l-5.979,12.116l8.979-53.05h16.22L272.194,410.228z M224.034,260.589v-16.275c9.571,3.983,20.234,6.104,31.239,6.104c10.78,0,21.484-2.379,30.906-6.642v16.878l-31.046,38.323 L224.034,260.589z M192.992,175.101c0-5.739,0-48.124,0-53.852c34.467,2.161,71.481-7.801,101.965-27.451 c12.012,12.906,18.683,19.831,20.634,22.279c0,6.461,0,51.766,0,59.023c0,33.212-27.077,60.316-60.317,60.316 C218.549,235.417,192.992,207.081,192.992,175.101z M214.16,272.294l30.108,37.164c-7.348,5.219-27.516,19.545-29.708,21.102 l-24.43-48.96L214.16,272.294z M147.128,458.371c-2.872,2.802-4.264,6.947-3.57,10.991l4.081,23.795l-21.37-11.234 c-3.617-1.902-7.938-1.902-11.557,0l-21.369,11.234l4.082-23.795c0.69-4.029-0.645-8.138-3.571-10.991l-17.288-16.851 l23.896-3.472c4.014-0.586,7.523-3.103,9.346-6.793l10.684-21.648c11.295,22.885,10.784,21.97,11.44,22.97 c1.936,2.948,5.054,4.956,8.594,5.472l23.891,3.472L147.128,458.371z M168.859,458.137l9.775-9.527 c0-0.001,0.001-0.001,0.001-0.002c7.37-7.187,3.295-19.7-6.884-21.179l-23.159-3.365v-47.905c0-4.143-3.357-7.5-7.5-7.5 s-7.5,3.357-7.5,7.5v26.1l-1.966-3.983c-4.521-9.165-17.692-9.28-22.271-0.001l-12.399,25.125l-12.6,1.83v-63.86 c0-36.92,31.169-50.784,33.047-51.585l58.676-22.747l25.796,51.699c3.719,7.451,13.22,9.84,20.021,5.01l3.897-2.768l7.004,10.541 l-12.443,73.519l-16.453,2.391c-10.199,1.48-14.231,14.014-6.883,21.181l9.775,9.527H168.859z M281.798,458.371 c-2.878,2.808-4.263,6.953-3.57,10.991l4.081,23.795l-21.37-11.234c-3.617-1.902-7.938-1.902-11.557,0l-21.369,11.234 l4.082-23.795c0.712-4.153-0.784-8.275-3.571-10.991l-17.288-16.851l23.896-3.472c3.895-0.568,7.51-3.078,9.346-6.793 l10.684-21.648l10.685,21.65c1.88,3.805,5.53,6.235,9.35,6.791l23.891,3.472L281.798,458.371z M416.468,458.371 c-2.927,2.854-4.262,6.962-3.57,10.991l4.081,23.795l-21.37-11.234c-3.617-1.902-7.938-1.902-11.557,0l-21.369,11.234 l4.082-23.795c0.697-4.066-0.713-8.206-3.571-10.991l-17.288-16.851l23.896-3.472c4.042-0.59,7.535-3.128,9.346-6.793 l10.684-21.648l10.685,21.65c0.226,0.458,0.479,0.898,0.755,1.319c1.937,2.948,5.054,4.956,8.594,5.472l23.891,3.472 L416.468,458.371z"></path> </g> </g> </svg> 